<?xml version="1.0" encoding="UTF-8"?>
<!DOCTYPE svg PUBLIC "-//W3C//DTD SVG 1.1//EN" "http://www.w3.org/Graphics/SVG/1.1/DTD/svg11.dtd">
<svg xmlns="http://www.w3.org/2000/svg" version="1.1" width="600px" height="600px" style="shape-rendering:geometricPrecision; text-rendering:geometricPrecision; image-rendering:optimizeQuality; fill-rule:evenodd; clip-rule:evenodd" xmlns:xlink="http://www.w3.org/1999/xlink">
<g><path style="opacity:1" fill="#06d059" d="M 282.5,-0.5 C 294.167,-0.5 305.833,-0.5 317.5,-0.5C 423.289,9.11874 504.123,58.7854 560,148.5C 581.315,186.275 594.481,226.609 599.5,269.5C 599.5,289.833 599.5,310.167 599.5,330.5C 584.41,440.901 527.41,521.401 428.5,572C 397.178,586.391 364.511,595.558 330.5,599.5C 310.167,599.5 289.833,599.5 269.5,599.5C 158.165,584.297 77.3314,526.63 27,426.5C 11.3754,391.667 2.20875,355.334 -0.5,317.5C -0.5,305.833 -0.5,294.167 -0.5,282.5C 9.11874,176.711 58.7854,95.8773 148.5,40C 190.182,16.2696 234.849,2.76962 282.5,-0.5 Z"/></g>
<g><path style="opacity:1" fill="#07cc58" d="M 278.5,5.5 C 401.619,2.29029 494.786,52.957 558,157.5C 600.001,236.843 606.001,318.843 576,403.5C 544.425,481.508 490.258,537.674 413.5,572C 319.334,608.591 229.001,600.924 142.5,549C 61.6758,495.248 16.1758,419.748 6,322.5C 1.44451,212.462 42.9445,124.628 130.5,59C 175.156,28.1708 224.489,10.3375 278.5,5.5 Z"/></g>
<g><path style="opacity:1" fill="#07c956" d="M 283.5,9.5 C 402.627,8.29267 492.794,58.2927 554,159.5C 598.503,244.105 602.17,330.438 565,418.5C 519.88,511.6 446.38,567.766 344.5,587C 229.808,600.346 136.974,561.846 66,471.5C 7.13216,387.088 -5.5345,296.088 28,198.5C 65.3637,106.802 131.53,46.9691 226.5,19C 245.392,14.2957 264.392,11.129 283.5,9.5 Z"/></g>
<g><path style="opacity:1" fill="#07c454" d="M 293.5,14.5 C 392.334,15.8331 471.501,55.4998 531,133.5C 587.564,216.002 599.564,304.669 567,399.5C 528.696,493.132 460.53,552.632 362.5,578C 264.999,597.153 179.332,573.82 105.5,508C 32.3978,435.69 3.89783,348.523 20,246.5C 41.4993,151.355 95.9993,82.5216 183.5,40C 218.686,24.5345 255.353,16.0345 293.5,14.5 Z"/></g>
<g><path style="opacity:1" fill="#07be52" d="M 297.5,23.5 C 393.143,26.0655 469.309,65.3988 526,141.5C 580.761,224.429 590.427,312.429 555,405.5C 515.47,494.68 447.97,549.847 352.5,571C 248.892,587.356 161.725,557.19 91,480.5C 27.925,403.135 9.59168,316.135 36,219.5C 66.5,127.667 127.667,66.5 219.5,36C 245.11,28.4529 271.11,24.2863 297.5,23.5 Z"/></g>
<g><path style="opacity:1" fill="#07b850" d="M 281.5,34.5 C 376.017,30.8561 452.851,65.5228 512,138.5C 567.416,217.074 579.749,302.074 549,393.5C 516.884,474.949 459.05,528.783 375.5,555C 280.8,579.466 196.134,560.466 121.5,498C 53.5982,432.64 25.5982,352.974 37.5,259C 54.167,165.028 105.5,97.6942 191.5,57C 220.45,44.7626 250.45,37.2626 281.5,34.5 Z"/></g>
<g><path style="opacity:1" fill="#08b14d" d="M 283.5,47.5 C 354.42,44.3049 416.753,65.4716 470.5,111C 534.091,172.756 560.591,247.923 550,336.5C 536.537,422.243 491.704,485.41 415.5,526C 338.5,561.333 261.5,561.333 184.5,526C 110.536,486.993 66.0356,426.16 51,343.5C 38.9958,262.887 58.9958,191.553 111,129.5C 157.945,80.227 215.445,52.8936 283.5,47.5 Z"/></g>
<g><path style="opacity:1" fill="#08ac4b" d="M 279.5,69.5 C 372.646,64.3209 445.146,99.9876 497,176.5C 531.116,235.984 539.449,298.984 522,365.5C 498.262,442.238 448.429,493.738 372.5,520C 311.511,537.758 252.178,533.425 194.5,507C 123.644,469.178 82.4774,410.345 71,330.5C 61.7206,246.964 88.2206,177.464 150.5,122C 188.049,91.312 231.049,73.812 279.5,69.5 Z"/></g>
<g><path style="opacity:1" fill="#08b14d" d="M 241.5,137.5 C 265.357,136.972 288.357,141.138 310.5,150C 346.17,169.829 380.837,191.162 414.5,214C 443.699,235.056 459.033,263.723 460.5,300C 459.201,334.267 445.201,361.934 418.5,383C 383.506,406.837 347.506,429.17 310.5,450C 284.407,461.073 257.407,464.406 229.5,460C 194.295,450.127 172.795,427.294 165,391.5C 161.56,373.664 159.56,355.664 159,337.5C 158.151,306.818 158.485,276.151 160,245.5C 160.873,226.258 164.54,207.592 171,189.5C 184.909,159.132 208.409,141.799 241.5,137.5 Z"/></g>
<g><path style="opacity:1" fill="#07b850" d="M 254.5,163.5 C 274.796,163.908 294.129,168.408 312.5,177C 340.848,192.834 368.181,210.168 394.5,229C 417.671,247.007 430.338,270.674 432.5,300C 430.338,329.326 417.671,352.993 394.5,371C 368.181,389.832 340.848,407.166 312.5,423C 295.066,431.109 276.732,435.609 257.5,436.5C 230.849,434.341 210.349,422.007 196,399.5C 186.609,379.936 181.609,359.27 181,337.5C 180.333,312.5 180.333,287.5 181,262.5C 181.609,240.73 186.609,220.064 196,200.5C 209.935,179.129 229.435,166.795 254.5,163.5 Z"/></g>
<g><path style="opacity:1" fill="#13bf55" d="M 250.5,179.5 C 277.156,177.831 301.823,183.997 324.5,198C 345.044,210.549 365.044,223.882 384.5,238C 402.147,252.132 412.981,270.299 417,292.5C 418.364,312.74 412.697,330.74 400,346.5C 388.671,358.504 376.171,369.004 362.5,378C 347.668,387.584 332.668,396.917 317.5,406C 242.048,439.226 200.882,414.726 194,332.5C 193.333,310.833 193.333,289.167 194,267.5C 194.939,247.078 199.939,227.744 209,209.5C 218.558,193.423 232.391,183.423 250.5,179.5 Z"/></g>
<g><path style="opacity:1" fill="#fefefe" d="M 257.5,192.5 C 262.545,196.195 267.878,199.528 273.5,202.5C 310.545,226.195 347.878,249.528 385.5,272.5C 390.545,276.195 395.878,279.528 401.5,282.5C 411.878,288.988 414.712,297.988 410,309.5C 407.843,312.976 405.01,315.643 401.5,317.5C 395.878,320.472 390.545,323.805 385.5,327.5C 347.878,350.472 310.545,373.805 273.5,397.5C 267.878,400.472 262.545,403.805 257.5,407.5C 243.959,416.308 233.459,413.641 226,399.5C 225.333,333.167 225.333,266.833 226,200.5C 233.384,186.348 243.884,183.681 257.5,192.5 Z"/></g>
<g><path style="opacity:1" fill="#09c455" d="M 401.5,282.5 C 395.878,279.528 390.545,276.195 385.5,272.5C 386.043,272.44 386.376,272.107 386.5,271.5C 378.356,258.856 368.022,248.356 355.5,240C 339.959,228.81 323.625,218.81 306.5,210C 295.803,205.07 284.803,202.57 273.5,202.5C 267.878,199.528 262.545,196.195 257.5,192.5C 259.634,190.967 262.134,190.3 265,190.5C 284.821,191.551 303.321,197.051 320.5,207C 337.51,217.503 354.176,228.503 370.5,240C 384.706,250.262 395.206,263.429 402,279.5C 402.74,280.749 402.573,281.749 401.5,282.5 Z"/></g>
<g><path style="opacity:1" fill="#07c454" d="M 224.5,228.5 C 220.599,236.704 217.766,245.371 216,254.5C 211.333,284.833 211.333,315.167 216,345.5C 217.766,354.629 220.599,363.296 224.5,371.5C 224.666,378.175 224.5,384.842 224,391.5C 212.704,374.613 206.371,355.947 205,335.5C 203,311.833 203,288.167 205,264.5C 206.371,244.053 212.704,225.387 224,208.5C 224.5,215.158 224.666,221.825 224.5,228.5 Z"/></g>
<g><path style="opacity:1" fill="#11cc5a" d="M 385.5,272.5 C 347.878,249.528 310.545,226.195 273.5,202.5C 284.803,202.57 295.803,205.07 306.5,210C 323.625,218.81 339.959,228.81 355.5,240C 368.022,248.356 378.356,258.856 386.5,271.5C 386.376,272.107 386.043,272.44 385.5,272.5 Z"/></g>
<g><path style="opacity:1" fill="#07cb57" d="M 224.5,228.5 C 224.5,276.167 224.5,323.833 224.5,371.5C 220.599,363.296 217.766,354.629 216,345.5C 211.333,315.167 211.333,284.833 216,254.5C 217.766,245.371 220.599,236.704 224.5,228.5 Z"/></g>
<g><path style="opacity:1" fill="#0ac455" d="M 401.5,317.5 C 402.573,318.251 402.74,319.251 402,320.5C 395.862,334.31 387.029,346.143 375.5,356C 353.686,372.414 330.686,387.081 306.5,400C 293.23,405.609 279.397,408.776 265,409.5C 262.134,409.7 259.634,409.033 257.5,407.5C 262.545,403.805 267.878,400.472 273.5,397.5C 291.415,396.585 308.082,391.085 323.5,381C 340.202,370.65 356.202,359.316 371.5,347C 377.068,341.268 382.068,335.101 386.5,328.5C 386.376,327.893 386.043,327.56 385.5,327.5C 390.545,323.805 395.878,320.472 401.5,317.5 Z"/></g>
<g><path style="opacity:1" fill="#14cc5b" d="M 385.5,327.5 C 386.043,327.56 386.376,327.893 386.5,328.5C 382.068,335.101 377.068,341.268 371.5,347C 356.202,359.316 340.202,370.65 323.5,381C 308.082,391.085 291.415,396.585 273.5,397.5C 310.545,373.805 347.878,350.472 385.5,327.5 Z"/></g>
</svg>
